<!-- icon666.com - MILLIONS vector ICONS FREE --><svg viewBox="0 0 176 176" xmlns="http://www.w3.org/2000/svg"><g id="Layer_2" data-name="Layer 2"><g id="_12.viber" data-name="12.viber"><circle id="background" cx="88" cy="88" fill="#6f3faa" r="88"></circle><g id="icon" fill="#fff"><path d="m138.83 59.45v-.13c-1.18-4.78-4.26-9.72-8.3-13.88-4.72-4.88-10.73-8.71-16.47-9.95h-.12a137.68 137.68 0 0 0 -51.82 0h-.12c-10.66 2.31-22.23 13.45-24.81 23.83v.13a101.55 101.55 0 0 0 0 43.69v.12c1.84 7.4 8.24 15.18 15.62 19.88a30 30 0 0 0 7.79 3.61v11.58a4.66 4.66 0 0 0 8 3.23l11.74-12.2c2.54.14 5.1.22 7.64.22a138.13 138.13 0 0 0 25.91-2.46h.12c10.63-2.32 22.21-13.46 24.77-23.84v-.12a101.55 101.55 0 0 0 .05-43.71zm-9.29 41.55c-1.72 6.77-10.5 15.2-17.49 16.75a128.49 128.49 0 0 1 -27.56 2.25.59.59 0 0 0 -.48.2l-8.57 8.8-9.12 9.35a1.06 1.06 0 0 1 -1.83-.73v-19.2a.66.66 0 0 0 -.54-.65 16.94 16.94 0 0 1 -4.18-1.6c-5.94-3.17-11.93-9.67-13.31-15.17a92 92 0 0 1 0-39.49c1.71-6.74 10.54-15.15 17.48-16.71a128 128 0 0 1 48.11 0c3.85.86 8.25 3.79 11.69 7.39 2.83 2.93 5 6.31 5.8 9.35a92 92 0 0 1 0 39.46z"></path><path d="m112.3 102a14.83 14.83 0 0 1 -6.36 7 15.21 15.21 0 0 1 -2.75.87c-1.07-.32-2.09-.54-3-.93a75.87 75.87 0 0 1 -20.9-12.29 52.64 52.64 0 0 1 -5.23-5.13 67.8 67.8 0 0 1 -10-15.26c-1.28-2.61-2.36-5.31-3.46-8-1-2.45.48-5 2-6.83a16 16 0 0 1 5.37-4 3.46 3.46 0 0 1 4.31 1 55.86 55.86 0 0 1 6.72 9.33 4.44 4.44 0 0 1 -1.25 6c-.5.35-1 .75-1.43 1.14a4.51 4.51 0 0 0 -1.08 1.14 3.13 3.13 0 0 0 -.24 2.77c1.93 5.31 4.86 9.74 9.24 12.85a23.88 23.88 0 0 0 4.76 2.61 7.25 7.25 0 0 0 3.58.88c2.18-.26 2.9-2.67 4.42-3.91a4.19 4.19 0 0 1 5-.23c1.62 1 3.18 2.13 4.74 3.23a52.31 52.31 0 0 1 4.45 3.4 3.52 3.52 0 0 1 1.11 4.36z"></path><path d=""></path><path d="m89.16 54h-.58z"></path><path d=""></path><path d="m90.87 54.08h-1.28c.41-.02.84 0 1.28 0z"></path><path d="m113 84.05c-1 0-1.49-.85-1.56-1.78-.13-1.83-.23-3.67-.48-5.49a22.24 22.24 0 0 0 -3.14-8.65 23 23 0 0 0 -15.4-10.58c-1.44-.26-2.91-.32-4.36-.47-.92-.1-2.13-.16-2.33-1.3a1.57 1.57 0 0 1 1.55-1.78 6.26 6.26 0 0 1 .72 0 26.58 26.58 0 0 1 22 12 26.29 26.29 0 0 1 3.78 9.69c.38 2.16.52 4.38.69 6.58a1.54 1.54 0 0 1 -1.47 1.78z"></path><path d="m107.59 79.38a3.82 3.82 0 0 1 -.12.88 1.47 1.47 0 0 1 -2.76.15 4.3 4.3 0 0 1 -.15-1.24 16.11 16.11 0 0 0 -1.3-6.51c-.2-.44-.42-.89-.67-1.32a14.56 14.56 0 0 0 -6.11-5.73 18 18 0 0 0 -4.86-1.5c-.74-.12-1.48-.19-2.22-.29a1.41 1.41 0 0 1 -1.33-1.57 1.39 1.39 0 0 1 1.55-1.38 20.26 20.26 0 0 1 8.43 2.2 17 17 0 0 1 7.45 7.36 19.22 19.22 0 0 1 1.84 5.9 7.93 7.93 0 0 1 .12.81c.05.6.07 1.2.12 1.94 0 .07.01.16.01.3z"></path><path d="m100.74 78a1.3 1.3 0 0 1 -1.06 1h-.22a1.51 1.51 0 0 1 -1.52-1 2 2 0 0 1 -.12-.51 14.27 14.27 0 0 0 -.3-2 5.81 5.81 0 0 0 -2.14-3.35 5.66 5.66 0 0 0 -1.73-.84c-.79-.23-1.62-.17-2.4-.36a1.48 1.48 0 0 1 -1.2-1.71 1.55 1.55 0 0 1 1.63-1.24c4.58.33 8 2.53 8.88 7.44a11.77 11.77 0 0 1 .19 1.38 4 4 0 0 1 -.01 1.19z"></path></g></g></g></svg>