<svg width="10px" height="10px" viewBox="0 0 13 20" fill="none" xmlns="http://www.w3.org/2000/svg">
<g id="Group 6">
<path id="Vector" d="M10.1826 18.9826H2.81739C1.86087 18.9826 1 18.2174 1 17.1652V2.81739C1 1.86087 1.76522 1 2.81739 1H10.1826C11.1391 1 12 1.76522 12 2.81739V17.1652C12 18.1217 11.1391 18.9826 10.1826 18.9826Z" stroke="black" stroke-miterlimit="10" stroke-linecap="round" stroke-linejoin="round"/>
<path id="Vector_2" d="M2.72168 15.3477H10.2782" stroke="black" stroke-miterlimit="10" stroke-linecap="round" stroke-linejoin="round"/>
<path id="Vector_3" d="M6.35658 17.8347C6.72637 17.8347 7.02614 17.535 7.02614 17.1652C7.02614 16.7954 6.72637 16.4956 6.35658 16.4956C5.98679 16.4956 5.68701 16.7954 5.68701 17.1652C5.68701 17.535 5.98679 17.8347 6.35658 17.8347Z" fill="black"/>
</g>
</svg>
